<svg xmlns="http://www.w3.org/2000/svg" width="24" height="24" fill="none" viewBox="0 0 24 24"><path fill="#1ee8ca" fill-rule="evenodd" d="M13.6347 20.7273V12.766H16.3581L16.7666 9.66245H13.6347V7.68128C13.6347 6.783 13.888 6.17084 15.2027 6.17084L16.8769 6.17017V3.39423C16.5874 3.35733 15.5935 3.27272 14.4368 3.27272C12.0215 3.27272 10.3679 4.7188 10.3679 7.3739V9.66245H7.63623V12.766H10.3679V20.7273H13.6347Z" clip-rule="evenodd"/><mask id="mask0" width="10" height="18" x="7" y="3" mask-type="alpha" maskUnits="userSpaceOnUse"><path fill="#fff" fill-rule="evenodd" d="M13.6347 20.7273V12.766H16.3581L16.7666 9.66245H13.6347V7.68128C13.6347 6.783 13.888 6.17084 15.2027 6.17084L16.8769 6.17017V3.39423C16.5874 3.35733 15.5935 3.27272 14.4368 3.27272C12.0215 3.27272 10.3679 4.7188 10.3679 7.3739V9.66245H7.63623V12.766H10.3679V20.7273H13.6347Z" clip-rule="evenodd"/></mask></svg>